<svg data-v-70b83f88="" version="1.0" xmlns="http://www.w3.org/2000/svg" xmlns:xlink="http://www.w3.org/1999/xlink" width="100%" height="100%" viewBox="0 0 340.000000 250.000000" preserveAspectRatio="xMidYMid meet" color-interpolation-filters="sRGB" style="margin: auto;"> <rect data-v-70b83f88="" x="0" y="0" width="100%" height="100%" fill="#ffffff" fill-opacity="1" class="background"></rect> <rect data-v-70b83f88="" x="0" y="0" width="100%" height="100%" fill="url(#watermark)" fill-opacity="1" class="watermarklayer"></rect> <g data-v-70b83f88="" fill="#1c085d" class="icon-text-wrapper icon-svg-group iconsvg" transform="translate(82.68999481201172,57.781402587890625)"><g class="iconsvg-imagesvg" transform="translate(57.31000518798828,0)"><g><rect fill="#1c085d" fill-opacity="0" stroke-width="2" x="0" y="0" width="60" height="70.73469772705837" class="image-rect"></rect> <svg filter="url(#colors4145640099)" x="0" y="0" width="60" height="70.73469772705837" filtersec="colorsf3314170706" class="image-svg-svg primary" style="overflow: visible;"><svg xmlns="http://www.w3.org/2000/svg" xmlns:xlink="http://www.w3.org/1999/xlink" xml:space="preserve" version="1.1" viewBox="0 0 167.1042022705078 197" x="0px" y="0px" fill-rule="evenodd" clip-rule="evenodd"><defs></defs><g><path d="M122 60l33 -60 0 119c0,4 0,7 -1,10 -2,0 -4,1 -6,2 0,-3 0,-6 0,-9l-58 0 -12 16 -13 -16 -58 0c1,38 33,68 71,68 20,0 39,-9 51,-23 2,2 4,4 5,5 -14,15 -34,25 -56,25 -43,0 -78,-35 -78,-78l0 -119 33 60c26,-20 63,-20 89,0zm-27 47c-1,4 -7,3 -6,-1 3,-23 33,-23 36,0 1,4 -5,5 -6,1 -3,-15 -21,-15 -24,0zm-52 -6c1,4 -6,5 -7,1 -3,-16 12,-29 27,-25 5,1 3,7 -1,6 -10,-2 -22,7 -19,18zm15 -13c6,0 11,5 11,11 0,6 -5,11 -11,11 -6,0 -11,-5 -11,-11 0,-6 5,-11 11,-11z"></path><path d="M90 145c-2,4 -8,1 -6,-3 6,-12 23,-12 24,0 0,3 -1,7 -5,10 5,5 5,11 1,16 -6,8 -15,5 -20,-3 -2,-4 3,-7 5,-4 3,4 7,7 10,3 3,-3 1,-6 -3,-8 -2,-1 -3,-4 0,-6 4,-3 5,-6 5,-8 0,-5 -8,-3 -11,3z"></path><path d="M129 141c-6,8 10,22 15,26 5,-4 21,-18 15,-26 -5,-5 -12,3 -15,6 -3,-3 -10,-11 -15,-6zm15 35c-9,-7 -30,-26 -20,-39 5,-6 15,-5 20,0 6,-5 15,-6 20,0 11,13 -10,32 -20,39z"></path></g></svg></svg> <defs><filter id="colors4145640099"><feColorMatrix type="matrix" values="0 0 0 0 0.109375  0 0 0 0 0.03125  0 0 0 0 0.36328125  0 0 0 1 0" class="icon-fecolormatrix"></feColorMatrix></filter> <filter id="colorsf3314170706"><feColorMatrix type="matrix" values="0 0 0 0 0.99609375  0 0 0 0 0.99609375  0 0 0 0 0.99609375  0 0 0 1 0" class="icon-fecolormatrix"></feColorMatrix></filter> <filter id="colorsb85294530"><feColorMatrix type="matrix" values="0 0 0 0 0  0 0 0 0 0  0 0 0 0 0  0 0 0 1 0" class="icon-fecolormatrix"></feColorMatrix></filter></defs></g></g> <g transform="translate(0,77.73469543457031)"><g data-gra="path-name" fill-rule="" class="tp-name iconsvg-namesvg" transform="translate(0,0)"><g transform="scale(1)"><g><path d="M12.94-33.73L12.94-33.73Q22.63-33.73 17.97-16.07 13.32 1.58 28.19 1.58L28.19 1.58Q41.75 1.58 41.75 3.67L41.75 3.67Q41.75 3.89 41.62 4.11L41.62 4.11Q40.17 6.64 22.52 6.64L22.52 6.64 22.37 6.64Q4.57 6.64 9.22-10.91 13.86-28.45 8.55-28.47 3.23-28.48 3.23-31.11L3.23-31.11Q3.23-33.73 12.94-33.73ZM39.42-32.83L39.42-32.83Q41.35-32.83 41.35-31.75L41.35-31.75Q41.35-30.17 37.29-26.3L37.29-26.3Q30.39-19.78 24.99-19.76 19.6-19.75 27.14-26.29 34.67-32.83 39.42-32.83ZM37.46-9.4L37.46-9.4Q40.47-6.22 40.47-4.7L40.47-4.7Q40.47-3.36 38.06-3.36L38.06-3.36Q32.89-3.36 27.15-9.4 21.4-15.45 26.55-15.45 31.71-15.45 37.46-9.4ZM73.6-0.66Q67.61-8.09 61.56-0.66 55.5 6.77 50.95 6.77L50.95 6.77Q49.31 6.77 49.31 5.47L49.31 5.47Q49.31 3.16 54.58-3.3L54.58-3.3Q62.75-13.36 55.33-13.36 47.9-13.36 47.9-15.92 47.9-18.48 55.76-18.48 63.61-18.48 63.61-23.41 63.61-28.34 55.65-28.34 47.68-28.34 47.68-30.92L47.68-30.92Q47.68-33.49 68.07-33.49L68.07-33.49Q87.3-33.49 87.3-31.2L87.3-31.2Q87.3-31.07 87.23-30.92L87.23-30.92Q86-28.34 78.53-28.34 71.06-28.34 71.06-23.41 71.06-18.48 79.69-18.48L79.69-18.48Q87.28-18.48 87.28-16.5L87.28-16.5Q87.28-16.24 87.12-15.93L87.12-15.93Q85.94-13.36 79.2-13.36 72.47-13.36 80.6-3.3L80.6-3.3Q85.78 3.14 85.78 5.45L85.78 5.45Q85.78 6.77 84.16 6.77L84.16 6.77Q79.58 6.77 73.6-0.66ZM130.03-19.71L130.03-19.71Q127.99-17.51 121.63-17.51 115.27-17.51 115.27-6.42 115.27 4.68 112.76 5.76L112.76 5.76Q112.63 5.8 112.52 5.8L112.52 5.8Q110.26 5.8 110.26-12.83L110.26-12.83Q110.26-32.48 114.31-32.48 118.37-32.48 118.71-33.27 119.05-34.06 119.85-34.5 120.65-34.94 121.55-34.98L121.55-34.98 121.68-34.98Q122.5-34.98 123.13-34.63L123.13-34.63Q123.84-34.23 124.32-33.35 124.8-32.48 128.44-32.48 132.08-32.48 132.08-27.19 132.08-21.91 130.03-19.71ZM121.2-28.26L121.2-28.26Q115.27-28.26 115.27-25.08 115.27-21.91 121.21-21.91 127.16-21.91 127.16-25.08 127.16-28.26 121.2-28.26ZM115.75-3.69L115.75-3.69Q115.75-14.11 124.09-14.11 132.43-14.11 132.43-5.73L132.43-5.73Q132.43 2.66 130.83 4.39 129.22 6.13 128.46 6.13 127.71 6.13 127.71 4.46 127.71 2.79 128.23 2.79 128.76 2.79 128.76 0.85 128.76-1.1 128.02-1.1 127.29-1.1 127.29 1.75 127.29 4.59 126.02 5.36 124.76 6.13 124.76 2.52 124.76-1.1 123.96-1.1 123.16-1.1 123.16 1.82 123.16 4.75 121.86 5.44 120.56 6.13 120.56 2.52 120.56-1.1 119.96-1.1 119.36-1.1 119.36 1.9 119.36 4.9 117.55 5.8L117.55 5.8Q117.4 5.87 117.27 5.87L117.27 5.87Q115.75 5.87 115.75-3.69ZM123.99-5.32L123.99-5.32Q124.76-5.32 124.76-7.57 124.76-9.82 123.99-9.82 123.22-9.82 123.22-7.57 123.22-5.32 123.99-5.32ZM128.76-7.56L128.76-7.56Q128.76-9.82 128.02-9.82 127.29-9.82 127.29-7.57 127.29-5.32 128.02-5.32 128.76-5.32 128.76-7.56ZM119.95-5.32L119.95-5.32Q120.56-5.32 120.56-7.57 120.56-9.82 119.96-9.82 119.36-9.82 119.36-7.57 119.36-5.32 119.95-5.32ZM95.41-31.4L95.41-31.4Q98.26-31.4 98.26-32.76 98.26-34.12 101.13-34.12 104-34.12 104-32.76 104-31.4 106.81-31.4 109.62-31.4 109.62-19.94 109.62-8.48 107.24-5.92 104.85-3.36 104.43-3.34 104-3.32 104-0.92 104 1.47 104.36 1.47 104.72 1.47 104.72-0.38 104.72-2.24 107.33-2.24 109.93-2.24 109.93-0.38 109.93 1.47 107.49 3.89L107.49 3.89Q105.05 6.31 98.83 6.31L98.83 6.31 98.79 6.31Q92.55 6.31 92.55 3.89L92.55 3.89Q92.55 1.47 95.41 1.47 98.26 1.47 98.26-0.92 98.26-3.32 95.41-3.32 92.55-3.32 92.55-17.36L92.55-17.36Q92.55-31.4 95.41-31.4ZM98.88-17.36L98.88-17.36Q98.88-26.59 98.15-26.59 97.43-26.59 97.43-17.37 97.43-8.15 98.15-8.15 98.88-8.15 98.88-17.36ZM104.72-17.36L104.72-17.36Q104.72-26.59 104.06-26.59 103.4-26.59 103.4-17.37 103.4-8.15 104.06-8.15 104.72-8.15 104.72-17.36ZM164.33-15.53L164.33-15.53Q156.67-15.53 156.67-21.2 156.67-26.87 166.99-26.87 177.32-26.87 177.32-23.36 177.32-19.84 174.67-17.69 172.02-15.53 164.33-15.53ZM171.45-21.2L171.45-21.2Q171.45-22.65 166.99-22.65 162.53-22.65 162.53-21.21 162.53-19.78 166.99-19.78 171.45-19.78 171.45-21.2ZM167.01-13.45L167.01-13.45Q177.85-13.45 177.85-5.87L177.85-5.87Q177.85 1.71 175.17 4.05 172.49 6.39 164.34 6.39 156.2 6.39 156.2-3.53 156.2-13.45 167.01-13.45ZM164.33-7.58L164.33-7.58Q164.33-9.16 163.22-9.16 162.11-9.16 162.11-7.59 162.11-6.02 163.22-6.02 164.33-6.02 164.33-7.58ZM164.33 0.11L164.33 0.11Q164.33-1.89 163.22-1.89 162.11-1.89 162.11 0.11 162.11 2.11 163.22 2.11 164.33 2.11 164.33 0.11ZM171.98-1.56L171.98-1.56Q171.98-5.23 171.3-3.56 170.62-1.89 170.2-1.89 169.78-1.89 169.78 0.11 169.78 2.11 170.88 2.11 171.98 2.11 171.98-1.56ZM171.98-7.58L171.98-7.58Q171.98-9.16 170.88-9.16 169.78-9.16 169.78-7.59 169.78-6.02 170.88-6.02 171.98-6.02 171.98-7.58ZM156.34-31.33L156.34-31.33Q156.34-33.49 167.37-33.49L167.37-33.49Q177.56-33.49 177.56-31.64L177.56-31.64Q177.56-31.49 177.5-31.33L177.5-31.33Q176.59-29.18 166.46-29.18 156.34-29.18 156.34-31.33ZM140.47-31.11L140.47-31.11Q143.35-31.11 143.35-32.73 143.35-34.34 146.4-34.34L146.4-34.34Q149.46-34.34 149.46-32.73 149.46-31.11 152.3-31.11 155.15-31.11 155.15-19.57 155.15-8.02 152.89-5.63 150.62-3.23 150.04-3.21 149.46-3.19 149.46-0.64 149.46 1.91 150.01 1.91 150.56 1.91 150.56 0.04 150.56-1.82 153.25-1.82 155.94-1.82 155.96 0.21 155.98 2.24 153.6 4.47 151.22 6.7 144.18 6.7L144.18 6.7 144.12 6.7Q137.15 6.7 137.15 4.31L137.15 4.31Q137.15 1.91 140.25 1.91 143.35 1.91 143.35-0.64 143.35-3.19 140.48-3.19 137.61-3.19 137.61-17.15 137.61-31.11 140.47-31.11ZM144.05-17.16L144.05-17.16Q144.05-26.3 143.36-26.3 142.67-26.3 142.67-17.16 142.67-8.02 143.36-8.02 144.05-8.02 144.05-17.16ZM150.1-17.16L150.1-17.16Q150.1-26.3 149.43-26.3 148.75-26.3 148.75-17.16 148.75-8.02 149.43-8.02 150.1-8.02 150.1-17.16Z" transform="translate(-3.2300000190734863, 34.97999954223633)"></path></g> <!----> <!----> <!----> <!----> <!----> <!----> <!----></g></g> <g data-gra="path-slogan" fill-rule="" class="tp-slogan iconsvg-slogansvg" fill="#1c085d" transform="translate(5.000007629394531,47.75)"><rect x="0" height="1" y="3.9750003814697266" width="45.045005798339844"></rect> <rect height="1" y="3.9750003814697266" width="45.045005798339844" x="119.57500457763672"></rect> <g transform="translate(48.045005798339844,0)"><g transform="scale(1)"><path d="M6.42-3.89L2.20-3.89L2.20 0L1.03 0L1.03-8.58L6.98-8.58L6.98-7.59L2.20-7.59L2.20-4.92L6.42-4.92L6.42-3.89ZM8.16-8.58L9.33-8.58L9.33-1.03L13.69-1.03L13.69 0L8.16 0L8.16-8.58ZM21.75-8.58L18.52-3.47L18.52 0L17.34 0L17.34-3.47L14.11-8.58L15.47-8.58L17.91-4.45L20.39-8.58L21.75-8.58ZM22.97-8.58L24.14-8.58L24.14 0L22.97 0L22.97-8.58ZM27.52-8.58L31.83-1.64L31.83-8.58L32.95-8.58L32.95 0L31.64 0L27.28-6.94L27.23-6.94L27.23 0L26.11 0L26.11-8.58L27.52-8.58ZM41.16-3.61L38.53-3.61L38.53-4.59L42.28-4.59L42.28 0L41.53 0L41.25-1.08Q40.27 0.09 38.44 0.14L38.44 0.14Q36.70 0.14 35.77-0.75L35.77-0.75Q34.36-2.06 34.41-4.36L34.41-4.36Q34.73-8.63 38.48-8.81L38.48-8.81Q41.67-8.63 42.14-6L42.14-6L41.02-6Q40.55-7.78 38.44-7.83L38.44-7.83Q35.77-7.64 35.63-4.31L35.63-4.31Q35.63-0.75 38.48-0.75L38.48-0.75Q39.52-0.75 40.27-1.31L40.27-1.31Q41.20-2.06 41.16-3.61L41.16-3.61ZM50.63-7.64L48.56-7.64L48.56-4.97L50.63-4.97Q52.45-4.92 52.41-6.38L52.41-6.38Q52.41-7.64 50.63-7.64L50.63-7.64ZM51.09 0L47.39 0L47.39-8.58L51.19-8.58Q53.48-8.48 53.58-6.42L53.58-6.42Q53.58-5.16 52.45-4.64L52.45-4.64Q54.05-4.08 54.05-2.53L54.05-2.53Q53.91-0.09 51.09 0L51.09 0ZM50.81-3.98L48.56-3.98L48.56-0.98L51.05-0.98Q52.83-1.03 52.88-2.53L52.88-2.53Q52.88-3.98 50.81-3.98L50.81-3.98ZM61.03 0L60.19-2.48L56.72-2.48L55.83 0L54.66 0L57.89-8.58L59.20-8.58L62.30 0L61.03 0ZM58.45-7.31L57.09-3.52L59.77-3.52L58.50-7.31L58.45-7.31ZM65.53-7.59L62.63-7.59L62.63-8.58L69.56-8.58L69.56-7.59L66.66-7.59L66.66 0L65.53 0L65.53-7.59Z" transform="translate(-1.03125, 8.8125)"></path></g></g></g></g></g><defs v-gra="od"></defs></svg>